{
	"asset":{
		"generator":"Khronos glTF Blender I/O v3.6.27",
		"version":"2.0"
	},
	"extensionsUsed":[
		"KHR_materials_specular",
		"KHR_materials_ior"
	],
	"scene":0,
	"scenes":[
		{
			"name":"Scene",
			"nodes":[
				0,
				1,
				2,
				3,
				4,
				5,
				6,
				7,
				8,
				9,
				10,
				11,
				12,
				13
			]
		}
	],
	"nodes":[
		{
			"name":"L_Dir",
			"rotation":[
				-0.6532815098762512,
				0.27059802412986755,
				0.27059805393218994,
				0.6532815098762512
			],
			"scale":[
				-0.010000045411288738,
				-0.010000045411288738,
				-0.009999999776482582
			]
		},
		{
			"name":"L_Amb",
			"rotation":[
				0.7071068286895752,
				0,
				0,
				0.7071068286895752
			],
			"scale":[
				0.009999999776482582,
				0.009999999776482582,
				0.009999999776482582
			]
		},
		{
			"mesh":0,
			"name":"a",
			"rotation":[
				0.7071068286895752,
				0,
				0,
				0.7071068286895752
			],
			"scale":[
				0.009999999776482582,
				0.009999999776482582,
				0.009999999776482582
			]
		},
		{
			"mesh":1,
			"name":"a_2",
			"rotation":[
				0.7071068286895752,
				0,
				0,
				0.7071068286895752
			],
			"scale":[
				0.009999999776482582,
				0.009999999776482582,
				0.009999999776482582
			]
		},
		{
			"mesh":2,
			"name":"a_3",
			"rotation":[
				0.7071068286895752,
				0,
				0,
				0.7071068286895752
			],
			"scale":[
				0.009999999776482582,
				0.009999999776482582,
				0.009999999776482582
			]
		},
		{
			"mesh":3,
			"name":"a_4",
			"rotation":[
				0.7071068286895752,
				0,
				0,
				0.7071068286895752
			],
			"scale":[
				0.009999999776482582,
				0.009999999776482582,
				0.009999999776482582
			]
		},
		{
			"mesh":4,
			"name":"a_5",
			"rotation":[
				0.7071068286895752,
				0,
				0,
				0.7071068286895752
			],
			"scale":[
				0.009999999776482582,
				0.009999999776482582,
				0.009999999776482582
			]
		},
		{
			"mesh":5,
			"name":"a_6",
			"rotation":[
				0.7071068286895752,
				0,
				0,
				0.7071068286895752
			],
			"scale":[
				0.009999999776482582,
				0.009999999776482582,
				0.009999999776482582
			]
		},
		{
			"mesh":6,
			"name":"a_7",
			"rotation":[
				0.7071068286895752,
				0,
				0,
				0.7071068286895752
			],
			"scale":[
				0.009999999776482582,
				0.009999999776482582,
				0.009999999776482582
			]
		},
		{
			"mesh":7,
			"name":"a_8",
			"rotation":[
				0.7071068286895752,
				0,
				0,
				0.7071068286895752
			],
			"scale":[
				0.009999999776482582,
				0.009999999776482582,
				0.009999999776482582
			]
		},
		{
			"mesh":8,
			"name":"a_9",
			"rotation":[
				0.7071068286895752,
				0,
				0,
				0.7071068286895752
			],
			"scale":[
				0.009999999776482582,
				0.009999999776482582,
				0.009999999776482582
			]
		},
		{
			"mesh":9,
			"name":"a_10",
			"rotation":[
				0.7071068286895752,
				0,
				0,
				0.7071068286895752
			],
			"scale":[
				0.009999999776482582,
				0.009999999776482582,
				0.009999999776482582
			]
		},
		{
			"mesh":10,
			"name":"a_11",
			"rotation":[
				0.7071068286895752,
				0,
				0,
				0.7071068286895752
			],
			"scale":[
				0.009999999776482582,
				0.009999999776482582,
				0.009999999776482582
			]
		},
		{
			"mesh":11,
			"name":"a_12",
			"rotation":[
				0.7071068286895752,
				0,
				0,
				0.7071068286895752
			],
			"scale":[
				0.009999999776482582,
				0.009999999776482582,
				0.009999999776482582
			]
		}
	],
	"materials":[
		{
			"doubleSided":true,
			"extensions":{
				"KHR_materials_specular":{
					"specularColorFactor":[
						2.371357614441398,
						2.371357614441398,
						2.371357614441398
					]
				},
				"KHR_materials_ior":{
					"ior":1.4500000476837158
				}
			},
			"name":"M_0_0_0_255",
			"pbrMetallicRoughness":{
				"baseColorFactor":[
					0,
					0,
					0,
					1
				],
				"metallicFactor":0,
				"roughnessFactor":0.2928932309150696
			}
		},
		{
			"doubleSided":true,
			"extensions":{
				"KHR_materials_specular":{
					"specularColorFactor":[
						2.371357614441398,
						2.371357614441398,
						2.371357614441398
					]
				},
				"KHR_materials_ior":{
					"ior":1.4500000476837158
				}
			},
			"name":"M_0_168_213_191",
			"pbrMetallicRoughness":{
				"baseColorFactor":[
					0,
					0.658823549747467,
					0.8352941274642944,
					0.7490196228027344
				],
				"metallicFactor":0,
				"roughnessFactor":0.2928932309150696
			}
		}
	],
	"meshes":[
		{
			"name":"Mesh",
			"primitives":[
				{
					"attributes":{
						"POSITION":0,
						"NORMAL":1
					},
					"indices":2,
					"material":0
				}
			]
		},
		{
			"name":"Mesh.001",
			"primitives":[
				{
					"attributes":{
						"POSITION":3,
						"NORMAL":4
					},
					"indices":5,
					"material":0
				}
			]
		},
		{
			"name":"Mesh.002",
			"primitives":[
				{
					"attributes":{
						"POSITION":6,
						"NORMAL":7
					},
					"indices":8,
					"material":0
				}
			]
		},
		{
			"name":"Mesh.003",
			"primitives":[
				{
					"attributes":{
						"POSITION":9,
						"NORMAL":10
					},
					"indices":11,
					"material":0
				}
			]
		},
		{
			"name":"Mesh.004",
			"primitives":[
				{
					"attributes":{
						"POSITION":12,
						"NORMAL":13
					},
					"indices":14,
					"material":0
				}
			]
		},
		{
			"name":"Mesh.005",
			"primitives":[
				{
					"attributes":{
						"POSITION":15,
						"NORMAL":16
					},
					"indices":17,
					"material":0
				}
			]
		},
		{
			"name":"Mesh.006",
			"primitives":[
				{
					"attributes":{
						"POSITION":18,
						"NORMAL":19
					},
					"indices":20,
					"material":0
				}
			]
		},
		{
			"name":"Mesh.007",
			"primitives":[
				{
					"attributes":{
						"POSITION":21,
						"NORMAL":22
					},
					"indices":8,
					"material":0
				}
			]
		},
		{
			"name":"Mesh.008",
			"primitives":[
				{
					"attributes":{
						"POSITION":23,
						"NORMAL":24
					},
					"indices":25,
					"material":0
				}
			]
		},
		{
			"name":"Mesh.009",
			"primitives":[
				{
					"attributes":{
						"POSITION":26,
						"NORMAL":27
					},
					"indices":28,
					"material":0
				}
			]
		},
		{
			"name":"Mesh.010",
			"primitives":[
				{
					"attributes":{
						"POSITION":29,
						"NORMAL":30
					},
					"indices":31,
					"material":1
				}
			]
		},
		{
			"name":"Mesh.011",
			"primitives":[
				{
					"attributes":{
						"POSITION":32,
						"NORMAL":33
					},
					"indices":31,
					"material":1
				}
			]
		}
	],
	"accessors":[
		{
			"bufferView":0,
			"componentType":5126,
			"count":1152,
			"max":[
				2.009999990463257,
				6.0934648513793945,
				1.4550542831420898
			],
			"min":[
				1.9900000095367432,
				3.990077257156372,
				-1.4550542831420898
			],
			"type":"VEC3"
		},
		{
			"bufferView":1,
			"componentType":5126,
			"count":1152,
			"type":"VEC3"
		},
		{
			"bufferView":2,
			"componentType":5123,
			"count":1152,
			"type":"SCALAR"
		},
		{
			"bufferView":3,
			"componentType":5126,
			"count":1536,
			"max":[
				1.0099999904632568,
				6.092169761657715,
				2.2658658027648926
			],
			"min":[
				0.9900000095367432,
				0.9902985095977783,
				-2.2658658027648926
			],
			"type":"VEC3"
		},
		{
			"bufferView":4,
			"componentType":5126,
			"count":1536,
			"type":"VEC3"
		},
		{
			"bufferView":5,
			"componentType":5123,
			"count":1536,
			"type":"SCALAR"
		},
		{
			"bufferView":6,
			"componentType":5126,
			"count":1440,
			"max":[
				0.009999999776482582,
				6.0920281410217285,
				2.477599859237671
			],
			"min":[
				-0.009999999776482582,
				-0.009922778233885765,
				-2.477599859237671
			],
			"type":"VEC3"
		},
		{
			"bufferView":7,
			"componentType":5126,
			"count":1440,
			"type":"VEC3"
		},
		{
			"bufferView":8,
			"componentType":5123,
			"count":1440,
			"type":"SCALAR"
		},
		{
			"bufferView":9,
			"componentType":5126,
			"count":1872,
			"max":[
				-0.9900000095367432,
				6.092242240905762,
				2.2658822536468506
			],
			"min":[
				-1.0099999904632568,
				0.9902985095977783,
				-2.2658658027648926
			],
			"type":"VEC3"
		},
		{
			"bufferView":10,
			"componentType":5126,
			"count":1872,
			"type":"VEC3"
		},
		{
			"bufferView":11,
			"componentType":5123,
			"count":1872,
			"type":"SCALAR"
		},
		{
			"bufferView":12,
			"componentType":5126,
			"count":1920,
			"max":[
				-1.9900000095367432,
				6.0933518409729,
				1.4551571607589722
			],
			"min":[
				-2.009999990463257,
				3.990077257156372,
				-1.455103874206543
			],
			"type":"VEC3"
		},
		{
			"bufferView":13,
			"componentType":5126,
			"count":1920,
			"type":"VEC3"
		},
		{
			"bufferView":14,
			"componentType":5123,
			"count":1920,
			"type":"SCALAR"
		},
		{
			"bufferView":15,
			"componentType":5126,
			"count":1200,
			"max":[
				1.4550542831420898,
				6.0934648513793945,
				-1.9900000095367432
			],
			"min":[
				-1.4550542831420898,
				3.990077257156372,
				-2.009999990463257
			],
			"type":"VEC3"
		},
		{
			"bufferView":16,
			"componentType":5126,
			"count":1200,
			"type":"VEC3"
		},
		{
			"bufferView":17,
			"componentType":5123,
			"count":1200,
			"type":"SCALAR"
		},
		{
			"bufferView":18,
			"componentType":5126,
			"count":1680,
			"max":[
				2.2658658027648926,
				6.092169761657715,
				-0.9900000095367432
			],
			"min":[
				-2.2658658027648926,
				0.9902985095977783,
				-1.0099999904632568
			],
			"type":"VEC3"
		},
		{
			"bufferView":19,
			"componentType":5126,
			"count":1680,
			"type":"VEC3"
		},
		{
			"bufferView":20,
			"componentType":5123,
			"count":1680,
			"type":"SCALAR"
		},
		{
			"bufferView":21,
			"componentType":5126,
			"count":1440,
			"max":[
				2.477599859237671,
				6.0920281410217285,
				0.009999999776482582
			],
			"min":[
				-2.477566719055176,
				-0.009922778233885765,
				-0.009999999776482582
			],
			"type":"VEC3"
		},
		{
			"bufferView":22,
			"componentType":5126,
			"count":1440,
			"type":"VEC3"
		},
		{
			"bufferView":23,
			"componentType":5126,
			"count":1632,
			"max":[
				2.2658658027648926,
				6.092169761657715,
				1.0099999904632568
			],
			"min":[
				-2.265864610671997,
				0.9902985095977783,
				0.9900000095367432
			],
			"type":"VEC3"
		},
		{
			"bufferView":24,
			"componentType":5126,
			"count":1632,
			"type":"VEC3"
		},
		{
			"bufferView":25,
			"componentType":5123,
			"count":1632,
			"type":"SCALAR"
		},
		{
			"bufferView":26,
			"componentType":5126,
			"count":1296,
			"max":[
				1.4550542831420898,
				6.0934648513793945,
				2.009999990463257
			],
			"min":[
				-1.455103874206543,
				3.990077257156372,
				1.9900000095367432
			],
			"type":"VEC3"
		},
		{
			"bufferView":27,
			"componentType":5126,
			"count":1296,
			"type":"VEC3"
		},
		{
			"bufferView":28,
			"componentType":5123,
			"count":1296,
			"type":"SCALAR"
		},
		{
			"bufferView":29,
			"componentType":5126,
			"count":15555,
			"max":[
				2.4678001403808594,
				6.090089321136475,
				2.4678001403808594
			],
			"min":[
				-2.4677734375,
				0,
				-2.4678001403808594
			],
			"type":"VEC3"
		},
		{
			"bufferView":30,
			"componentType":5126,
			"count":15555,
			"type":"VEC3"
		},
		{
			"bufferView":31,
			"componentType":5123,
			"count":15555,
			"type":"SCALAR"
		},
		{
			"bufferView":32,
			"componentType":5126,
			"count":15555,
			"max":[
				2.4678001403808594,
				6.090089321136475,
				2.4678001403808594
			],
			"min":[
				-2.4677734375,
				0,
				-2.4678001403808594
			],
			"type":"VEC3"
		},
		{
			"bufferView":33,
			"componentType":5126,
			"count":15555,
			"type":"VEC3"
		}
	],
	"bufferViews":[
		{
			"buffer":0,
			"byteLength":13824,
			"byteOffset":0,
			"target":34962
		},
		{
			"buffer":0,
			"byteLength":13824,
			"byteOffset":13824,
			"target":34962
		},
		{
			"buffer":0,
			"byteLength":2304,
			"byteOffset":27648,
			"target":34963
		},
		{
			"buffer":0,
			"byteLength":18432,
			"byteOffset":29952,
			"target":34962
		},
		{
			"buffer":0,
			"byteLength":18432,
			"byteOffset":48384,
			"target":34962
		},
		{
			"buffer":0,
			"byteLength":3072,
			"byteOffset":66816,
			"target":34963
		},
		{
			"buffer":0,
			"byteLength":17280,
			"byteOffset":69888,
			"target":34962
		},
		{
			"buffer":0,
			"byteLength":17280,
			"byteOffset":87168,
			"target":34962
		},
		{
			"buffer":0,
			"byteLength":2880,
			"byteOffset":104448,
			"target":34963
		},
		{
			"buffer":0,
			"byteLength":22464,
			"byteOffset":107328,
			"target":34962
		},
		{
			"buffer":0,
			"byteLength":22464,
			"byteOffset":129792,
			"target":34962
		},
		{
			"buffer":0,
			"byteLength":3744,
			"byteOffset":152256,
			"target":34963
		},
		{
			"buffer":0,
			"byteLength":23040,
			"byteOffset":156000,
			"target":34962
		},
		{
			"buffer":0,
			"byteLength":23040,
			"byteOffset":179040,
			"target":34962
		},
		{
			"buffer":0,
			"byteLength":3840,
			"byteOffset":202080,
			"target":34963
		},
		{
			"buffer":0,
			"byteLength":14400,
			"byteOffset":205920,
			"target":34962
		},
		{
			"buffer":0,
			"byteLength":14400,
			"byteOffset":220320,
			"target":34962
		},
		{
			"buffer":0,
			"byteLength":2400,
			"byteOffset":234720,
			"target":34963
		},
		{
			"buffer":0,
			"byteLength":20160,
			"byteOffset":237120,
			"target":34962
		},
		{
			"buffer":0,
			"byteLength":20160,
			"byteOffset":257280,
			"target":34962
		},
		{
			"buffer":0,
			"byteLength":3360,
			"byteOffset":277440,
			"target":34963
		},
		{
			"buffer":0,
			"byteLength":17280,
			"byteOffset":280800,
			"target":34962
		},
		{
			"buffer":0,
			"byteLength":17280,
			"byteOffset":298080,
			"target":34962
		},
		{
			"buffer":0,
			"byteLength":19584,
			"byteOffset":315360,
			"target":34962
		},
		{
			"buffer":0,
			"byteLength":19584,
			"byteOffset":334944,
			"target":34962
		},
		{
			"buffer":0,
			"byteLength":3264,
			"byteOffset":354528,
			"target":34963
		},
		{
			"buffer":0,
			"byteLength":15552,
			"byteOffset":357792,
			"target":34962
		},
		{
			"buffer":0,
			"byteLength":15552,
			"byteOffset":373344,
			"target":34962
		},
		{
			"buffer":0,
			"byteLength":2592,
			"byteOffset":388896,
			"target":34963
		},
		{
			"buffer":0,
			"byteLength":186660,
			"byteOffset":391488,
			"target":34962
		},
		{
			"buffer":0,
			"byteLength":186660,
			"byteOffset":578148,
			"target":34962
		},
		{
			"buffer":0,
			"byteLength":31110,
			"byteOffset":764808,
			"target":34963
		},
		{
			"buffer":0,
			"byteLength":186660,
			"byteOffset":795920,
			"target":34962
		},
		{
			"buffer":0,
			"byteLength":186660,
			"byteOffset":982580,
			"target":34962
		}
	],
	"buffers":[
		{
			"byteLength":1169240,
			"uri":"data:application/octet-stream;base64,"
		}
	]
}
