{"accessors" : [{"bufferView" : 0, "byteOffset" : 0, "componentType" : 5123, "count" : 45765, "type" : "SCALAR", "max" : [28654], "min" : [0]}, {"bufferView" : 1, "byteOffset" : 0, "componentType" : 5126, "count" : 28655, "type" : "VEC3", "max" : [2.9609482288360596, 2.9609482288360596, 8.711243629455566], "min" : [-2.9610092639923096, -2.9609482288360596, -0.009922778233885765], "name" : "POSITION"}, {"bufferView" : 1, "byteOffset" : 12, "componentType" : 5126, "count" : 28655, "type" : "VEC3", "max" : [1.0000044107437134, 1.0000044107437134, 1.0000044107437134], "min" : [-1.0000044107437134, -1.0000044107437134, -0.9922822117805481], "name" : "NORMAL"}], "asset" : {"generator" : "Aspose.3D 23.6.0", "version" : "2.0"}, "buffers" : [{"uri" : "data:application/octet-stream;base64,", "byteLength" : 1189900}], "bufferViews" : [{"buffer" : 0, "byteOffset" : 0, "byteLength" : 91532, "target" : 34963}, {"buffer" : 0, "byteOffset" : 91536, "byteLength" : 1098360, "byteStride" : 24, "target" : 34962}], "meshes" : [{"primitives" : [{"attributes" : {"POSITION" : 1, "NORMAL" : 2}, "indices" : 0, "mode" : 4}], "name" : ""}], "nodes" : [{"mesh" : 0, "name" : ""}], "scene" : 0, "scenes" : [{"nodes" : [0]}]}