{
	"asset":{
		"generator":"Khronos glTF Blender I/O v3.6.27",
		"version":"2.0"
	},
	"scene":0,
	"scenes":[
		{
			"name":"Scene",
			"nodes":[
				0,
				1,
				2,
				3,
				4,
				5,
				6,
				7,
				8,
				9,
				10,
				11
			]
		}
	],
	"nodes":[
		{
			"mesh":0,
			"name":"a"
		},
		{
			"mesh":1,
			"name":"a_2"
		},
		{
			"mesh":2,
			"name":"a_3"
		},
		{
			"mesh":3,
			"name":"a_4"
		},
		{
			"mesh":4,
			"name":"a_5"
		},
		{
			"mesh":5,
			"name":"a_6"
		},
		{
			"mesh":6,
			"name":"a_7"
		},
		{
			"mesh":7,
			"name":"a_8"
		},
		{
			"mesh":8,
			"name":"a_9"
		},
		{
			"mesh":9,
			"name":"a_10"
		},
		{
			"mesh":10,
			"name":"a_11"
		},
		{
			"mesh":11,
			"name":"a_12",
			"rotation":[
				1,
				0,
				0,
				0
			],
			"scale":[
				-0.999420166015625,
				-1,
				-1
			]
		}
	],
	"materials":[
		{
			"doubleSided":true,
			"name":"M_0_0_0_255.001",
			"pbrMetallicRoughness":{
				"baseColorFactor":[
					0,
					0,
					0,
					1
				],
				"metallicFactor":0,
				"roughnessFactor":0.5
			}
		},
		{
			"doubleSided":true,
			"name":"M_0_168_213_191.001",
			"pbrMetallicRoughness":{
				"baseColorFactor":[
					0,
					0.658823549747467,
					0.8352941274642944,
					0.7490196228027344
				],
				"metallicFactor":0,
				"roughnessFactor":0.5
			}
		}
	],
	"meshes":[
		{
			"name":"a.001",
			"primitives":[
				{
					"attributes":{
						"POSITION":0,
						"NORMAL":1
					},
					"indices":2,
					"material":0
				}
			]
		},
		{
			"name":"a_2.001",
			"primitives":[
				{
					"attributes":{
						"POSITION":3,
						"NORMAL":4
					},
					"indices":5,
					"material":0
				}
			]
		},
		{
			"name":"a_3.001",
			"primitives":[
				{
					"attributes":{
						"POSITION":6,
						"NORMAL":7
					},
					"indices":8,
					"material":0
				}
			]
		},
		{
			"name":"a_4.001",
			"primitives":[
				{
					"attributes":{
						"POSITION":9,
						"NORMAL":10
					},
					"indices":11,
					"material":0
				}
			]
		},
		{
			"name":"a_5.001",
			"primitives":[
				{
					"attributes":{
						"POSITION":12,
						"NORMAL":13
					},
					"indices":5,
					"material":0
				}
			]
		},
		{
			"name":"a_6.001",
			"primitives":[
				{
					"attributes":{
						"POSITION":14,
						"NORMAL":15
					},
					"indices":16,
					"material":0
				}
			]
		},
		{
			"name":"a_7.001",
			"primitives":[
				{
					"attributes":{
						"POSITION":17,
						"NORMAL":18
					},
					"indices":19,
					"material":0
				}
			]
		},
		{
			"name":"a_8.001",
			"primitives":[
				{
					"attributes":{
						"POSITION":20,
						"NORMAL":21
					},
					"indices":2,
					"material":0
				}
			]
		},
		{
			"name":"a_9.001",
			"primitives":[
				{
					"attributes":{
						"POSITION":22,
						"NORMAL":23
					},
					"indices":24,
					"material":0
				}
			]
		},
		{
			"name":"a_10.001",
			"primitives":[
				{
					"attributes":{
						"POSITION":25,
						"NORMAL":26
					},
					"indices":19,
					"material":0
				}
			]
		},
		{
			"name":"a_11.001",
			"primitives":[
				{
					"attributes":{
						"POSITION":27,
						"NORMAL":28
					},
					"indices":29,
					"material":1
				}
			]
		},
		{
			"name":"a_12.001",
			"primitives":[
				{
					"attributes":{
						"POSITION":30,
						"NORMAL":31
					},
					"indices":32,
					"material":1
				}
			]
		}
	],
	"accessors":[
		{
			"bufferView":0,
			"componentType":5126,
			"count":320,
			"max":[
				2.009999990463257,
				8.710827827453613,
				2.179661750793457
			],
			"min":[
				0,
				0,
				-2.179661750793457
			],
			"type":"VEC3"
		},
		{
			"bufferView":1,
			"componentType":5126,
			"count":320,
			"type":"VEC3"
		},
		{
			"bufferView":2,
			"componentType":5123,
			"count":1872,
			"type":"SCALAR"
		},
		{
			"bufferView":3,
			"componentType":5126,
			"count":344,
			"max":[
				1.0099999904632568,
				8.710886001586914,
				2.7863590717315674
			],
			"min":[
				0.9899999499320984,
				0.9902985692024231,
				-2.7863590717315674
			],
			"type":"VEC3"
		},
		{
			"bufferView":4,
			"componentType":5126,
			"count":344,
			"type":"VEC3"
		},
		{
			"bufferView":5,
			"componentType":5123,
			"count":2016,
			"type":"SCALAR"
		},
		{
			"bufferView":6,
			"componentType":5126,
			"count":312,
			"max":[
				0.009999999776482582,
				8.710650444030762,
				2.9609482288360596
			],
			"min":[
				-0.009999999776482582,
				-0.00992277916520834,
				-2.9609482288360596
			],
			"type":"VEC3"
		},
		{
			"bufferView":7,
			"componentType":5126,
			"count":312,
			"type":"VEC3"
		},
		{
			"bufferView":8,
			"componentType":5123,
			"count":1824,
			"type":"SCALAR"
		},
		{
			"bufferView":9,
			"componentType":5126,
			"count":360,
			"max":[
				-0.9899999499320984,
				8.710886001586914,
				2.7863590717315674
			],
			"min":[
				-1.0099999904632568,
				0.9902985692024231,
				-2.7863590717315674
			],
			"type":"VEC3"
		},
		{
			"bufferView":10,
			"componentType":5126,
			"count":360,
			"type":"VEC3"
		},
		{
			"bufferView":11,
			"componentType":5123,
			"count":2112,
			"type":"SCALAR"
		},
		{
			"bufferView":12,
			"componentType":5126,
			"count":344,
			"max":[
				-1.9900000095367432,
				8.711243629455566,
				2.179767370223999
			],
			"min":[
				-2.009999990463257,
				3.9902987480163574,
				-2.179661750793457
			],
			"type":"VEC3"
		},
		{
			"bufferView":13,
			"componentType":5126,
			"count":344,
			"type":"VEC3"
		},
		{
			"bufferView":14,
			"componentType":5126,
			"count":424,
			"max":[
				2.179661750793457,
				8.710827827453613,
				0
			],
			"min":[
				-2.179661750793457,
				0,
				-2.009999990463257
			],
			"type":"VEC3"
		},
		{
			"bufferView":15,
			"componentType":5126,
			"count":424,
			"type":"VEC3"
		},
		{
			"bufferView":16,
			"componentType":5123,
			"count":2496,
			"type":"SCALAR"
		},
		{
			"bufferView":17,
			"componentType":5126,
			"count":336,
			"max":[
				2.7863590717315674,
				8.710886001586914,
				-0.9899999499320984
			],
			"min":[
				-2.786358118057251,
				0.9902985692024231,
				-1.0099999904632568
			],
			"type":"VEC3"
		},
		{
			"bufferView":18,
			"componentType":5126,
			"count":336,
			"type":"VEC3"
		},
		{
			"bufferView":19,
			"componentType":5123,
			"count":1968,
			"type":"SCALAR"
		},
		{
			"bufferView":20,
			"componentType":5126,
			"count":320,
			"max":[
				2.9609482288360596,
				8.71096134185791,
				0.009999999776482582
			],
			"min":[
				-2.9610092639923096,
				-0.00992277916520834,
				-0.009999999776482582
			],
			"type":"VEC3"
		},
		{
			"bufferView":21,
			"componentType":5126,
			"count":320,
			"type":"VEC3"
		},
		{
			"bufferView":22,
			"componentType":5126,
			"count":328,
			"max":[
				2.7863590717315674,
				8.710886001586914,
				1.0099999904632568
			],
			"min":[
				-2.786358118057251,
				0.9902985692024231,
				0.9899999499320984
			],
			"type":"VEC3"
		},
		{
			"bufferView":23,
			"componentType":5126,
			"count":328,
			"type":"VEC3"
		},
		{
			"bufferView":24,
			"componentType":5123,
			"count":1920,
			"type":"SCALAR"
		},
		{
			"bufferView":25,
			"componentType":5126,
			"count":336,
			"max":[
				2.179661750793457,
				8.710827827453613,
				2.009999990463257
			],
			"min":[
				-2.179661750793457,
				0,
				0
			],
			"type":"VEC3"
		},
		{
			"bufferView":26,
			"componentType":5126,
			"count":336,
			"type":"VEC3"
		},
		{
			"bufferView":27,
			"componentType":5126,
			"count":6466,
			"max":[
				2.9510934352874756,
				8.709311485290527,
				2.9510934352874756
			],
			"min":[
				-2.9511501789093018,
				0,
				-2.9510934352874756
			],
			"type":"VEC3"
		},
		{
			"bufferView":28,
			"componentType":5126,
			"count":6466,
			"type":"VEC3"
		},
		{
			"bufferView":29,
			"componentType":5123,
			"count":35733,
			"type":"SCALAR"
		},
		{
			"bufferView":30,
			"componentType":5126,
			"count":6471,
			"max":[
				2.9510934352874756,
				8.709311485290527,
				2.9510934352874756
			],
			"min":[
				-2.9511501789093018,
				0,
				-2.9510934352874756
			],
			"type":"VEC3"
		},
		{
			"bufferView":31,
			"componentType":5126,
			"count":6471,
			"type":"VEC3"
		},
		{
			"bufferView":32,
			"componentType":5123,
			"count":35733,
			"type":"SCALAR"
		}
	],
	"bufferViews":[
		{
			"buffer":0,
			"byteLength":3840,
			"byteOffset":0,
			"target":34962
		},
		{
			"buffer":0,
			"byteLength":3840,
			"byteOffset":3840,
			"target":34962
		},
		{
			"buffer":0,
			"byteLength":3744,
			"byteOffset":7680,
			"target":34963
		},
		{
			"buffer":0,
			"byteLength":4128,
			"byteOffset":11424,
			"target":34962
		},
		{
			"buffer":0,
			"byteLength":4128,
			"byteOffset":15552,
			"target":34962
		},
		{
			"buffer":0,
			"byteLength":4032,
			"byteOffset":19680,
			"target":34963
		},
		{
			"buffer":0,
			"byteLength":3744,
			"byteOffset":23712,
			"target":34962
		},
		{
			"buffer":0,
			"byteLength":3744,
			"byteOffset":27456,
			"target":34962
		},
		{
			"buffer":0,
			"byteLength":3648,
			"byteOffset":31200,
			"target":34963
		},
		{
			"buffer":0,
			"byteLength":4320,
			"byteOffset":34848,
			"target":34962
		},
		{
			"buffer":0,
			"byteLength":4320,
			"byteOffset":39168,
			"target":34962
		},
		{
			"buffer":0,
			"byteLength":4224,
			"byteOffset":43488,
			"target":34963
		},
		{
			"buffer":0,
			"byteLength":4128,
			"byteOffset":47712,
			"target":34962
		},
		{
			"buffer":0,
			"byteLength":4128,
			"byteOffset":51840,
			"target":34962
		},
		{
			"buffer":0,
			"byteLength":5088,
			"byteOffset":55968,
			"target":34962
		},
		{
			"buffer":0,
			"byteLength":5088,
			"byteOffset":61056,
			"target":34962
		},
		{
			"buffer":0,
			"byteLength":4992,
			"byteOffset":66144,
			"target":34963
		},
		{
			"buffer":0,
			"byteLength":4032,
			"byteOffset":71136,
			"target":34962
		},
		{
			"buffer":0,
			"byteLength":4032,
			"byteOffset":75168,
			"target":34962
		},
		{
			"buffer":0,
			"byteLength":3936,
			"byteOffset":79200,
			"target":34963
		},
		{
			"buffer":0,
			"byteLength":3840,
			"byteOffset":83136,
			"target":34962
		},
		{
			"buffer":0,
			"byteLength":3840,
			"byteOffset":86976,
			"target":34962
		},
		{
			"buffer":0,
			"byteLength":3936,
			"byteOffset":90816,
			"target":34962
		},
		{
			"buffer":0,
			"byteLength":3936,
			"byteOffset":94752,
			"target":34962
		},
		{
			"buffer":0,
			"byteLength":3840,
			"byteOffset":98688,
			"target":34963
		},
		{
			"buffer":0,
			"byteLength":4032,
			"byteOffset":102528,
			"target":34962
		},
		{
			"buffer":0,
			"byteLength":4032,
			"byteOffset":106560,
			"target":34962
		},
		{
			"buffer":0,
			"byteLength":77592,
			"byteOffset":110592,
			"target":34962
		},
		{
			"buffer":0,
			"byteLength":77592,
			"byteOffset":188184,
			"target":34962
		},
		{
			"buffer":0,
			"byteLength":71466,
			"byteOffset":265776,
			"target":34963
		},
		{
			"buffer":0,
			"byteLength":77652,
			"byteOffset":337244,
			"target":34962
		},
		{
			"buffer":0,
			"byteLength":77652,
			"byteOffset":414896,
			"target":34962
		},
		{
			"buffer":0,
			"byteLength":71466,
			"byteOffset":492548,
			"target":34963
		}
	],
	"buffers":[
		{
			"byteLength":564016,
			"uri":"data:application/octet-stream;base64,"
		}
	]
}
