{
	"asset":{
		"generator":"Khronos glTF Blender I/O v3.6.27",
		"version":"2.0"
	},
	"scene":0,
	"scenes":[
		{
			"name":"Scene",
			"nodes":[
				0
			]
		}
	],
	"nodes":[
		{
			"mesh":0,
			"name":"Mesh_0",
			"rotation":[
				-0.7071066498756409,
				0,
				0,
				0.70710688829422
			],
			"translation":[
				0,
				-4.039999961853027,
				3.740000009536743
			]
		}
	],
	"meshes":[
		{
			"name":"Mesh_0",
			"primitives":[
				{
					"attributes":{
						"POSITION":0,
						"NORMAL":1
					},
					"indices":2
				}
			]
		}
	],
	"accessors":[
		{
			"bufferView":0,
			"componentType":5126,
			"count":33883,
			"max":[
				2.9609482288360596,
				2.9609482288360596,
				8.711243629455566
			],
			"min":[
				-2.9610092639923096,
				-2.9609482288360596,
				-0.009922778233885765
			],
			"type":"VEC3"
		},
		{
			"bufferView":1,
			"componentType":5126,
			"count":33883,
			"type":"VEC3"
		},
		{
			"bufferView":2,
			"componentType":5123,
			"count":36801,
			"type":"SCALAR"
		}
	],
	"bufferViews":[
		{
			"buffer":0,
			"byteLength":406596,
			"byteOffset":0,
			"target":34962
		},
		{
			"buffer":0,
			"byteLength":406596,
			"byteOffset":406596,
			"target":34962
		},
		{
			"buffer":0,
			"byteLength":73602,
			"byteOffset":813192,
			"target":34963
		}
	],
	"buffers":[
		{
			"byteLength":886796,
			"uri":"data:application/octet-stream;base64,"
		}
	]
}
